<?xml version="1.0" encoding="UTF-8" standalone="no"?>
<svg
   xmlns:dc="http://purl.org/dc/elements/1.1/"
   xmlns:cc="http://creativecommons.org/ns#"
   xmlns:rdf="http://www.w3.org/1999/02/22-rdf-syntax-ns#"
   xmlns:svg="http://www.w3.org/2000/svg"
   xmlns="http://www.w3.org/2000/svg"
   xmlns:sodipodi="http://sodipodi.sourceforge.net/DTD/sodipodi-0.dtd"
   xmlns:inkscape="http://www.inkscape.org/namespaces/inkscape"
   viewBox="0 0 16 16"
   version="1.1"
   id="svg11"
   sodipodi:docname="dependency.svg"
   inkscape:version="1.0.2-2 (e86c870879, 2021-01-15)">
  <metadata
     id="metadata17">
    <rdf:RDF>
      <cc:Work
         rdf:about="">
        <dc:format>image/svg+xml</dc:format>
        <dc:type
           rdf:resource="http://purl.org/dc/dcmitype/StillImage" />
      </cc:Work>
    </rdf:RDF>
  </metadata>
  <defs
     id="defs15" />
  <sodipodi:namedview
     pagecolor="#ffffff"
     bordercolor="#666666"
     borderopacity="1"
     objecttolerance="10"
     gridtolerance="10"
     guidetolerance="10"
     inkscape:pageopacity="0"
     inkscape:pageshadow="2"
     inkscape:window-width="1920"
     inkscape:window-height="1017"
     id="namedview13"
     showgrid="false"
     inkscape:zoom="26.5625"
     inkscape:cx="-2.60861"
     inkscape:cy="13.474697"
     inkscape:window-x="-8"
     inkscape:window-y="-8"
     inkscape:window-maximized="1"
     inkscape:current-layer="svg11" />
  <style
     id="style2">.st0{opacity:0}.st0,.st1{fill:#2d2d30}.st2{fill:#c5c5c5}.st3{fill:#2b282e}</style>
  <path
     style="color:#000000;font-style:normal;font-variant:normal;font-weight:normal;font-stretch:normal;font-size:medium;line-height:normal;font-family:sans-serif;font-variant-ligatures:normal;font-variant-position:normal;font-variant-caps:normal;font-variant-numeric:normal;font-variant-alternates:normal;font-variant-east-asian:normal;font-feature-settings:normal;font-variation-settings:normal;text-indent:0;text-align:start;text-decoration:none;text-decoration-line:none;text-decoration-style:solid;text-decoration-color:#000000;letter-spacing:normal;word-spacing:normal;text-transform:none;writing-mode:lr-tb;direction:ltr;text-orientation:mixed;dominant-baseline:auto;baseline-shift:baseline;text-anchor:start;white-space:normal;shape-padding:0;shape-margin:0;inline-size:0;clip-rule:nonzero;display:inline;overflow:visible;visibility:visible;isolation:auto;mix-blend-mode:normal;color-interpolation:sRGB;color-interpolation-filters:linearRGB;solid-color:#000000;solid-opacity:1;vector-effect:none;fill:#c5c5c5;fill-opacity:1;fill-rule:nonzero;stroke:none;stroke-width:0.0487388;stroke-linecap:butt;stroke-linejoin:miter;stroke-miterlimit:4;stroke-dasharray:none;stroke-dashoffset:0;stroke-opacity:1;color-rendering:auto;image-rendering:auto;shape-rendering:auto;text-rendering:auto;enable-background:accumulate;stop-color:#000000"
     d="M 10.520625,9.6860353 10.161256,9.3242487 10.331138,9.0646119 C 10.64233,8.5890115 10.814973,8.6343892 8.6943419,8.6343892 H 6.82611 L 6.6718769,8.9476805 C 6.4839144,9.3294859 6.1748544,9.6436743 5.8013768,9.8326201 5.5449335,9.9623558 5.4776317,9.9744048 5.0086255,9.9745528 4.5278045,9.9746978 4.4759981,9.9648748 4.1710532,9.8148199 3.4388743,9.4546649 3.011867,8.6368179 3.1491313,7.8575401 3.2587973,7.2349678 3.6543197,6.7145402 4.2189304,6.4499086 4.4658524,6.3341739 4.5559627,6.319303 5.0093831,6.3194455 c 0.4684776,1.457e-4 0.5355285,0.012175 0.7927741,0.1423132 0.3483777,0.1762321 0.7328529,0.5756243 0.894933,0.9296555 l 0.1227826,0.2681946 h 1.8728791 c 1.0300853,0 1.8728791,-0.011852 1.8728791,-0.026306 0,-0.071571 -0.220364,-0.4523881 -0.328705,-0.568052 l -0.123028,-0.1313424 0.384273,-0.364078 0.384267,-0.3640749 0.136034,0.1287263 c 0.694479,0.6571759 0.880223,2.0351581 0.404412,3.0002444 -0.114405,0.2320447 -0.458936,0.7054318 -0.517294,0.7107618 -0.01409,0.0014 -0.187311,-0.1604662 -0.384965,-0.3594486 z"
     id="path46-9" />
  <path
     style="color:#000000;font-style:normal;font-variant:normal;font-weight:normal;font-stretch:normal;font-size:medium;line-height:normal;font-family:sans-serif;font-variant-ligatures:normal;font-variant-position:normal;font-variant-caps:normal;font-variant-numeric:normal;font-variant-alternates:normal;font-variant-east-asian:normal;font-feature-settings:normal;font-variation-settings:normal;text-indent:0;text-align:start;text-decoration:none;text-decoration-line:none;text-decoration-style:solid;text-decoration-color:#000000;letter-spacing:normal;word-spacing:normal;text-transform:none;writing-mode:lr-tb;direction:ltr;text-orientation:mixed;dominant-baseline:auto;baseline-shift:baseline;text-anchor:start;white-space:normal;shape-padding:0;shape-margin:0;inline-size:0;clip-rule:nonzero;display:inline;overflow:visible;visibility:visible;isolation:auto;mix-blend-mode:normal;color-interpolation:sRGB;color-interpolation-filters:linearRGB;solid-color:#000000;solid-opacity:1;vector-effect:none;fill:#c5c5c5;fill-opacity:1;fill-rule:nonzero;stroke:none;stroke-width:0.0487388;stroke-linecap:butt;stroke-linejoin:miter;stroke-miterlimit:4;stroke-dasharray:none;stroke-dashoffset:0;stroke-opacity:1;color-rendering:auto;image-rendering:auto;shape-rendering:auto;text-rendering:auto;enable-background:accumulate;stop-color:#000000"
     d="M 11.968894,11.130981 11.598019,10.754537 11.83814,10.462103 C 12.538852,9.6087252 12.824965,8.3974652 12.584194,7.3036858 12.483206,6.8449262 12.14448,6.1513321 11.838739,5.7772582 L 11.594907,5.4789284 11.726062,5.3690117 c 0.07213,-0.060458 0.247857,-0.2222956 0.390495,-0.3596473 l 0.259337,-0.2497294 0.169703,0.1949552 c 0.464392,0.5335037 0.86578,1.2781467 1.050885,1.9495629 0.09208,0.3339812 0.10739,0.5122601 0.106754,1.2428449 -8.02e-4,0.7885941 -0.01079,0.8860228 -0.133981,1.2915847 -0.175623,0.5781943 -0.43001,1.0867883 -0.767913,1.5352813 -0.456279,0.605612 -0.400888,0.595159 -0.832448,0.157117 z"
     id="path44-7" />
  <path
     style="color:#000000;font-style:normal;font-variant:normal;font-weight:normal;font-stretch:normal;font-size:medium;line-height:normal;font-family:sans-serif;font-variant-ligatures:normal;font-variant-position:normal;font-variant-caps:normal;font-variant-numeric:normal;font-variant-alternates:normal;font-variant-east-asian:normal;font-feature-settings:normal;font-variation-settings:normal;text-indent:0;text-align:start;text-decoration:none;text-decoration-line:none;text-decoration-style:solid;text-decoration-color:#000000;letter-spacing:normal;word-spacing:normal;text-transform:none;writing-mode:lr-tb;direction:ltr;text-orientation:mixed;dominant-baseline:auto;baseline-shift:baseline;text-anchor:start;white-space:normal;shape-padding:0;shape-margin:0;inline-size:0;clip-rule:nonzero;display:inline;overflow:visible;visibility:visible;isolation:auto;mix-blend-mode:normal;color-interpolation:sRGB;color-interpolation-filters:linearRGB;solid-color:#000000;solid-opacity:1;vector-effect:none;fill:#c5c5c5;fill-opacity:1;fill-rule:nonzero;stroke:none;stroke-width:0.0487388;stroke-linecap:butt;stroke-linejoin:miter;stroke-miterlimit:4;stroke-dasharray:none;stroke-dashoffset:0;stroke-opacity:1;color-rendering:auto;image-rendering:auto;shape-rendering:auto;text-rendering:auto;enable-background:accumulate;stop-color:#000000"
     d="M 13.414552,12.618181 13.033439,12.25866 13.363945,11.872139 C 14.144077,10.959789 14.597646,9.8906628 14.718847,8.67846 14.8757,7.1096598 14.401873,5.6214664 13.338821,4.3440804 l -0.24757,-0.2974859 0.382136,-0.361 0.382133,-0.361 0.212336,0.2283975 c 1.822745,1.9606107 2.274246,4.9700944 1.120348,7.467706 -0.105024,0.227322 -0.260176,0.523623 -0.34478,0.658442 -0.20316,0.323746 -0.720805,0.989799 -0.902896,1.161757 l -0.144867,0.136804 z"
     id="path38-5" />
  <path
     style="color:#000000;font-style:normal;font-variant:normal;font-weight:normal;font-stretch:normal;font-size:medium;line-height:normal;font-family:sans-serif;font-variant-ligatures:normal;font-variant-position:normal;font-variant-caps:normal;font-variant-numeric:normal;font-variant-alternates:normal;font-variant-east-asian:normal;font-feature-settings:normal;font-variation-settings:normal;text-indent:0;text-align:start;text-decoration:none;text-decoration-line:none;text-decoration-style:solid;text-decoration-color:#000000;letter-spacing:normal;word-spacing:normal;text-transform:none;writing-mode:lr-tb;direction:ltr;text-orientation:mixed;dominant-baseline:auto;baseline-shift:baseline;text-anchor:start;white-space:normal;shape-padding:0;shape-margin:0;inline-size:0;clip-rule:nonzero;display:inline;overflow:visible;visibility:visible;isolation:auto;mix-blend-mode:normal;color-interpolation:sRGB;color-interpolation-filters:linearRGB;solid-color:#000000;solid-opacity:1;vector-effect:none;fill:#c5c5c5;fill-opacity:1;fill-rule:nonzero;stroke:none;stroke-width:0.0487388;stroke-linecap:butt;stroke-linejoin:miter;stroke-miterlimit:4;stroke-dasharray:none;stroke-dashoffset:0;stroke-opacity:1;color-rendering:auto;image-rendering:auto;shape-rendering:auto;text-rendering:auto;enable-background:accumulate;stop-color:#000000"
     d="M 4.0167067,12.899655 C 3.0269139,12.693615 2.1372532,12.19933 1.4410805,11.468672 0.84777454,10.845976 0.44596187,10.134506 0.22573924,9.3167305 0.1320972,8.969001 0.11417629,8.7810905 0.11417629,8.1469948 c 0,-0.9070259 0.0905099,-1.3167325 0.45760139,-2.0714109 C 1.0790669,5.032687 1.8511782,4.2724404 2.9238358,3.7596663 3.6199326,3.4269056 3.9824612,3.3536725 4.9362759,3.3531439 c 0.7582559,-4.318e-4 0.8642882,0.010489 1.2495972,0.1285422 0.5848914,0.179206 0.9192806,0.334848 1.3846115,0.6444692 0.9201113,0.6122216 1.6155503,1.5343308 1.968875,2.6106211 0.05512,0.1679261 0.1002289,0.3345952 0.1002289,0.3703767 0,0.050884 -0.1364526,0.065057 -0.6258917,0.065057 H 8.3878071 L 8.3258196,6.9650698 C 8.1632109,6.421689 7.7112338,5.7231136 7.25706,5.3131948 6.6942838,4.8052593 6.109845,4.5360263 5.3505589,4.4349347 3.6724778,4.2115133 2.117325,5.232534 1.5153781,6.9528857 1.3872324,7.319126 1.3789504,7.3916203 1.3789504,8.1469928 c 0,0.7553704 0.00832,0.8278657 0.1364277,1.194105 0.3821165,1.0920802 1.167978,1.9385082 2.156004,2.3221572 0.9579281,0.371967 2.1470665,0.271015 3.0241733,-0.256732 0.7221945,-0.43454 1.3952528,-1.292283 1.6302642,-2.0776104 l 0.061988,-0.2071384 h 0.6258917 c 0.4894391,0 0.6258918,0.014183 0.6258918,0.065057 0,0.035786 -0.045099,0.2024527 -0.1002289,0.3703788 -0.3533247,1.07629 -1.0487638,1.998401 -1.968875,2.61062 -0.4705474,0.313093 -0.8081509,0.469285 -1.3846115,0.640581 -0.5301915,0.15755 -1.628669,0.203755 -2.1691664,0.09124 z"
     id="path36" />
</svg>
